<?xml version="1.0" encoding="utf-8"?>
<!-- Generator: Adobe Illustrator 22.0.0, SVG Export Plug-In . SVG Version: 6.00 Build 0)  -->
<svg version="1.1" id="Слой_1" xmlns="http://www.w3.org/2000/svg" xmlns:xlink="http://www.w3.org/1999/xlink" x="0px" y="0px"
	 viewBox="0 0 67 58.8" style="enable-background:new 0 0 67 58.8;" xml:space="preserve">
<style type="text/css">
	.st0{fill:#FFA200;}
</style>
<path class="st0" d="M35.2,5.8l-5.7,34.1c-0.7,4.1-1.5,7-2.5,8.9c-1,1.9-2.8,3.5-5.4,4.9s-6,2-10.3,2c-2.5,0-5.2-0.3-8.1-0.8
	l1.4-8.7c1.7,0.3,3.3,0.5,4.8,0.5c2.9,0,4.9-0.4,6.1-1.2s1.9-1.8,2.2-3c0.3-1.2,1-4.7,2-10.4l4.4-26.3C24.1,5.8,35.2,5.8,35.2,5.8z"
	/>
<path class="st0" d="M56.3,26.3c-2.2-1.1-5.2-2.1-9-3c-2.7-0.7-4.4-1.3-5.4-2c-0.9-0.7-1.4-1.7-1.4-3s0.6-2.5,1.7-3.4
	c1.2-0.9,2.7-1.4,4.7-1.4c4.2,0,6.9,1.9,8,5.8l9.6-2.2C61.8,8.8,56,4.8,46.9,4.8c-2.3,0-4.4,0.3-6.2,0.9l-4.3,24.9
	c1.9,1,4.4,1.9,7.6,2.8c3.5,1,5.8,1.8,6.8,2.5s1.5,1.8,1.5,3.3c0,1.6-0.6,2.9-1.9,3.9s-3.1,1.5-5.5,1.5c-5.3,0-8.5-2.3-9.5-7h-0.1
	L33,50.5c3.2,1.8,7,2.7,11.4,2.7c6,0,10.6-1.5,13.8-4.4c3.2-3,4.9-6.6,4.9-11c0-2.7-0.6-5.1-1.8-7C60.2,28.8,58.5,27.3,56.3,26.3z"
	/>
</svg>
